{
	"asset":{
		"generator":"Khronos glTF Blender I/O v4.0.44",
		"version":"2.0"
	},
	"extensionsUsed":[
		"KHR_materials_specular",
		"KHR_materials_ior",
		"KHR_lights_punctual"
	],
	"extensionsRequired":[
		"KHR_lights_punctual"
	],
	"extensions":{
		"KHR_lights_punctual":{
			"lights":[
				{
					"color":[
						1,
						1,
						1
					],
					"intensity":5.435141387578143,
					"type":"point",
					"name":"Point"
				}
			]
		}
	},
	"scene":0,
	"scenes":[
		{
			"name":"Scene",
			"nodes":[
				0,
				1,
				2
			]
		}
	],
	"nodes":[
		{
			"mesh":0,
			"name":"Untitled",
			"rotation":[
				0.7071068286895752,
				0,
				0,
				0.7071068286895752
			],
			"translation":[
				-0.062365371733903885,
				0.25212812423706055,
				-0.004137961193919182
			]
		},
		{
			"mesh":1,
			"name":"Text",
			"rotation":[
				0.5,
				0.5,
				-0.5,
				0.4999999701976776
			],
			"scale":[
				0.2138875126838684,
				0.2138875126838684,
				0.2138875126838684
			],
			"translation":[
				0.3378913402557373,
				0.2720978856086731,
				0.035809844732284546
			]
		},
		{
			"extensions":{
				"KHR_lights_punctual":{
					"light":0
				}
			},
			"name":"Point",
			"rotation":[
				-0.7071068286895752,
				0,
				0,
				0.7071068286895752
			],
			"translation":[
				0.6046929955482483,
				0.27011868357658386,
				0.02848518081009388
			]
		}
	],
	"materials":[
		{
			"doubleSided":true,
			"extensions":{
				"KHR_materials_specular":{
					"specularFactor":0
				},
				"KHR_materials_ior":{
					"ior":1.4500000476837158
				}
			},
			"name":"palette",
			"pbrMetallicRoughness":{
				"baseColorTexture":{
					"index":0
				},
				"metallicFactor":0
			}
		},
		{
			"doubleSided":true,
			"name":"Material.001",
			"pbrMetallicRoughness":{
				"baseColorFactor":[
					0.009295428171753883,
					0,
					0.8016180992126465,
					1
				],
				"roughnessFactor":0.5
			}
		}
	],
	"meshes":[
		{
			"name":"Untitled",
			"primitives":[
				{
					"attributes":{
						"POSITION":0,
						"NORMAL":1,
						"TEXCOORD_0":2,
						"TANGENT":3
					},
					"indices":4,
					"material":0
				}
			]
		},
		{
			"name":"Text",
			"primitives":[
				{
					"attributes":{
						"POSITION":5,
						"NORMAL":6,
						"TEXCOORD_0":7,
						"TANGENT":8
					},
					"indices":9,
					"material":1
				},
				{
					"attributes":{
						"POSITION":10
					},
					"material":1,
					"mode":0
				}
			]
		}
	],
	"textures":[
		{
			"sampler":0,
			"source":0
		}
	],
	"images":[
		{
			"mimeType":"image/png",
			"name":"good ecology",
			"uri":"1234/good%20ecology.png"
		}
	],
	"accessors":[
		{
			"bufferView":0,
			"componentType":5126,
			"count":9276,
			"max":[
				1.8623653650283813,
				1.704137921333313,
				1.3729088306427002
			],
			"min":[
				-1.9376345872879028,
				-1.9958621263504028,
				-1.1270911693572998
			],
			"type":"VEC3"
		},
		{
			"bufferView":1,
			"componentType":5126,
			"count":9276,
			"type":"VEC3"
		},
		{
			"bufferView":2,
			"componentType":5126,
			"count":9276,
			"type":"VEC2"
		},
		{
			"bufferView":3,
			"componentType":5126,
			"count":9276,
			"type":"VEC4"
		},
		{
			"bufferView":4,
			"componentType":5123,
			"count":17904,
			"type":"SCALAR"
		},
		{
			"bufferView":5,
			"componentType":5126,
			"count":16577,
			"max":[
				1.5885632038116455,
				0.13999998569488525,
				0.262515127658844
			],
			"min":[
				-1.5885634422302246,
				-0.13999998569488525,
				-0.2625151574611664
			],
			"type":"VEC3"
		},
		{
			"bufferView":6,
			"componentType":5126,
			"count":16577,
			"type":"VEC3"
		},
		{
			"bufferView":7,
			"componentType":5126,
			"count":16577,
			"type":"VEC2"
		},
		{
			"bufferView":8,
			"componentType":5126,
			"count":16577,
			"type":"VEC4"
		},
		{
			"bufferView":9,
			"componentType":5123,
			"count":49440,
			"type":"SCALAR"
		},
		{
			"bufferView":10,
			"componentType":5126,
			"count":358,
			"max":[
				-1.1838486194610596,
				0.13999998569488525,
				0.23181644082069397
			],
			"min":[
				-1.5885634422302246,
				-0.13999998569488525,
				0.10157518088817596
			],
			"type":"VEC3"
		}
	],
	"bufferViews":[
		{
			"buffer":0,
			"byteLength":111312,
			"byteOffset":0,
			"target":34962
		},
		{
			"buffer":0,
			"byteLength":111312,
			"byteOffset":111312,
			"target":34962
		},
		{
			"buffer":0,
			"byteLength":74208,
			"byteOffset":222624,
			"target":34962
		},
		{
			"buffer":0,
			"byteLength":148416,
			"byteOffset":296832,
			"target":34962
		},
		{
			"buffer":0,
			"byteLength":35808,
			"byteOffset":445248,
			"target":34963
		},
		{
			"buffer":0,
			"byteLength":198924,
			"byteOffset":481056,
			"target":34962
		},
		{
			"buffer":0,
			"byteLength":198924,
			"byteOffset":679980,
			"target":34962
		},
		{
			"buffer":0,
			"byteLength":132616,
			"byteOffset":878904,
			"target":34962
		},
		{
			"buffer":0,
			"byteLength":265232,
			"byteOffset":1011520,
			"target":34962
		},
		{
			"buffer":0,
			"byteLength":98880,
			"byteOffset":1276752,
			"target":34963
		},
		{
			"buffer":0,
			"byteLength":4296,
			"byteOffset":1375632,
			"target":34962
		}
	],
	"samplers":[
		{
			"magFilter":9729,
			"minFilter":9987
		}
	],
	"buffers":[
		{
			"byteLength":1379928,
			"uri":"goodddd.bin"
		}
	]
}
