{
	"asset":{
		"generator":"Khronos glTF Blender I/O v4.0.44",
		"version":"2.0"
	},
	"extensionsUsed":[
		"KHR_materials_specular",
		"KHR_materials_ior"
	],
	"scene":0,
	"scenes":[
		{
			"name":"Scene",
			"nodes":[
				0
			]
		}
	],
	"nodes":[
		{
			"mesh":0,
			"name":"Untitled",
			"rotation":[
				0.7071068286895752,
				0,
				0,
				0.7071068286895752
			],
			"translation":[
				-0.10261586308479309,
				0.05135370045900345,
				0
			]
		}
	],
	"materials":[
		{
			"doubleSided":true,
			"extensions":{
				"KHR_materials_specular":{
					"specularFactor":0
				},
				"KHR_materials_ior":{
					"ior":1.4500000476837158
				}
			},
			"name":"palette",
			"pbrMetallicRoughness":{
				"baseColorTexture":{
					"index":0
				},
				"metallicFactor":0
			}
		}
	],
	"meshes":[
		{
			"name":"Untitled",
			"primitives":[
				{
					"attributes":{
						"POSITION":0,
						"NORMAL":1,
						"TEXCOORD_0":2,
						"TANGENT":3
					},
					"indices":4,
					"material":0
				}
			]
		}
	],
	"textures":[
		{
			"sampler":0,
			"source":0
		}
	],
	"images":[
		{
			"mimeType":"image/png",
			"name":"bad ecology",
			"uri":"123/bad%20ecology.png"
		}
	],
	"accessors":[
		{
			"bufferView":0,
			"componentType":5126,
			"count":9449,
			"max":[
				1.9026157855987549,
				1.7000001668930054,
				1.446678876876831
			],
			"min":[
				-1.8973841667175293,
				-1.9999998807907104,
				-2.553321361541748
			],
			"type":"VEC3"
		},
		{
			"bufferView":1,
			"componentType":5126,
			"count":9449,
			"type":"VEC3"
		},
		{
			"bufferView":2,
			"componentType":5126,
			"count":9449,
			"type":"VEC2"
		},
		{
			"bufferView":3,
			"componentType":5126,
			"count":9449,
			"type":"VEC4"
		},
		{
			"bufferView":4,
			"componentType":5123,
			"count":18276,
			"type":"SCALAR"
		}
	],
	"bufferViews":[
		{
			"buffer":0,
			"byteLength":113388,
			"byteOffset":0,
			"target":34962
		},
		{
			"buffer":0,
			"byteLength":113388,
			"byteOffset":113388,
			"target":34962
		},
		{
			"buffer":0,
			"byteLength":75592,
			"byteOffset":226776,
			"target":34962
		},
		{
			"buffer":0,
			"byteLength":151184,
			"byteOffset":302368,
			"target":34962
		},
		{
			"buffer":0,
			"byteLength":36552,
			"byteOffset":453552,
			"target":34963
		}
	],
	"samplers":[
		{
			"magFilter":9729,
			"minFilter":9987
		}
	],
	"buffers":[
		{
			"byteLength":490104,
			"uri":"badddd.bin"
		}
	]
}
